<?xml version="1.0" standalone="no"?>
<!DOCTYPE svg PUBLIC "-//W3C//DTD SVG 20010904//EN"
 "http://www.w3.org/TR/2001/REC-SVG-20010904/DTD/svg10.dtd">
<svg version="1.0" xmlns="http://www.w3.org/2000/svg"
 width="500.000000pt" height="500.000000pt" viewBox="0 0 500.000000 500.000000"
 preserveAspectRatio="xMidYMid meet">

<g transform="translate(0.000000,500.000000) scale(0.100000,-0.100000)"
fill="#000000" stroke="none">
<path d="M2002 3972 c-44 -79 -119 -212 -183 -324 -20 -35 -49 -85 -64 -113
-15 -27 -40 -70 -55 -95 -15 -25 -53 -92 -85 -150 -32 -58 -81 -143 -108 -190
-28 -47 -66 -114 -85 -150 -19 -36 -65 -117 -102 -180 -36 -63 -157 -275 -269
-471 l-202 -356 -106 -7 c-58 -3 -194 -7 -302 -7 -108 -1 -244 -4 -303 -8
l-107 -6 66 -115 c37 -63 72 -118 77 -122 14 -10 269 -10 585 -1 l242 6 23 41
c13 23 153 268 311 546 280 492 338 595 397 693 15 26 28 49 28 52 0 3 22 42
48 87 27 46 73 126 102 178 29 52 78 137 108 188 l54 94 23 -34 c12 -18 34
-55 49 -83 15 -27 65 -112 111 -189 47 -76 85 -144 85 -152 0 -8 -24 -54 -53
-102 -29 -48 -100 -166 -157 -262 -56 -96 -113 -191 -125 -210 -52 -83 -223
-376 -227 -390 -3 -9 14 -23 51 -42 31 -15 75 -39 99 -53 l42 -25 40 63 c59
94 82 133 145 242 32 55 74 127 95 160 20 33 70 116 110 185 40 69 82 140 93
158 10 18 24 31 30 29 6 -2 56 -80 112 -173 56 -93 168 -280 249 -417 l148
-247 52 30 c28 17 72 40 99 51 26 12 47 26 47 31 0 6 -37 71 -82 146 -46 75
-85 141 -87 146 -2 6 -35 61 -73 124 -37 62 -68 115 -68 118 0 3 -5 10 -10 17
-13 16 -188 307 -224 373 l-28 51 98 164 c124 210 146 246 164 270 16 21 7 34
145 -211 11 -19 41 -71 66 -115 26 -44 87 -152 137 -240 104 -186 95 -170 247
-435 65 -113 136 -239 160 -280 23 -41 77 -136 120 -210 42 -74 93 -164 113
-200 19 -36 50 -88 67 -116 l33 -51 233 -6 c129 -4 313 -7 410 -7 l177 0 72
121 c40 66 70 122 68 124 -2 3 -186 9 -408 15 -221 5 -404 11 -405 12 -3 5
-78 135 -130 228 -26 47 -65 114 -85 150 -43 74 -153 267 -182 320 -40 70
-272 477 -328 575 -32 55 -67 116 -77 135 -68 120 -202 357 -242 425 -65 113
-87 152 -121 218 -17 31 -34 57 -38 57 -4 0 -38 -53 -75 -117 -38 -65 -81
-138 -96 -163 -45 -73 -174 -292 -195 -330 -27 -50 -56 -90 -66 -90 -7 0 -28
31 -78 121 -11 19 -44 76 -74 125 -58 95 -180 299 -208 349 -42 74 -62 105
-68 105 -4 0 -26 -35 -50 -78z"/>
</g>
</svg>
