<svg xmlns="http://www.w3.org/2000/svg" xmlns:xlink="http://www.w3.org/1999/xlink" viewBox="0 0 64 64"><defs><linearGradient id="New_Gradient_Swatch_5" x1="7.543" y1="8.043" x2="56.957" y2="57.457" gradientUnits="userSpaceOnUse"><stop offset="0" stop-color="#4c82ff" id="id_106"></stop><stop offset="0.437" stop-color="#52e5ff" id="id_107"></stop><stop offset="1" stop-color="#4c82ff" id="id_108"></stop></linearGradient></defs><g id="Gradients"><path d="M34,23A11,11,0,1,0,45,34,11.013,11.013,0,0,0,34,23Zm0,20a9,9,0,1,1,9-9A9.01,9.01,0,0,1,34,43Zm5-9a6.608,6.608,0,0,0-1.707-4.293l1.414-1.414A8.646,8.646,0,0,1,41,34Zm0,1.977L41,36a4.061,4.061,0,0,1-1.293,2.707l-1.414-1.414A2.191,2.191,0,0,0,39,35.977ZM61,15H60V11a1,1,0,0,0-1-1H51a1,1,0,0,0-1,1v4H47.543L42.351,7h-17.7l-5.192,8H14V12a1,1,0,0,0-1-1H5a1,1,0,0,0-1,1v3H3a1,1,0,0,0-1,1V52a1,1,0,0,0,1,1H61a1,1,0,0,0,1-1V16A1,1,0,0,0,61,15Zm-9-3h6v3H52ZM25.735,9h15.53l3.894,6H21.841ZM6,13h6v2H6ZM4,51V17h9V51Zm56,0H15V17H60ZM57,19H50a1,1,0,0,0-1,1v6a1,1,0,0,0,1,1h7a1,1,0,0,0,1-1V20A1,1,0,0,0,57,19Zm-1,6H51V21h5ZM34,19A15,15,0,1,0,49,34,15.017,15.017,0,0,0,34,19Zm0,28A13,13,0,1,1,47,34,13.015,13.015,0,0,1,34,47Zm15-4a3,3,0,1,0,3,3A3,3,0,0,0,49,43Zm0,4a1,1,0,1,1,1-1A1,1,0,0,1,49,47ZM27,11H40v2H27Z" style="fill:url(#New_Gradient_Swatch_5)" id="id_105"></path></g></svg>