<?xml version="1.0" encoding="UTF-8" standalone="no"?> <svg xmlns="http://www.w3.org/2000/svg" xmlns:xlink="http://www.w3.org/1999/xlink" viewBox="0 0 64 64"><defs><style>.cls-1{fill:url(#linear-gradient);}.cls-2{fill:url(#linear-gradient-2);}.cls-3{fill:url(#linear-gradient-3);}.cls-4{fill:url(#linear-gradient-4);}.cls-5{fill:url(#linear-gradient-5);}</style><linearGradient id="linear-gradient" x1="14.43" y1="32" x2="49.57" y2="32" gradientUnits="userSpaceOnUse"><stop offset="0" stop-color="#17a6d7"/><stop offset="1" stop-color="#9d31fe"/></linearGradient><linearGradient id="linear-gradient-2" x1="27.3" y1="55.86" x2="36.7" y2="55.86" xlink:href="#linear-gradient"/><linearGradient id="linear-gradient-3" x1="18.88" y1="26" x2="45.12" y2="26" xlink:href="#linear-gradient"/><linearGradient id="linear-gradient-4" x1="20.79" y1="44.14" x2="43.21" y2="44.14" xlink:href="#linear-gradient"/><linearGradient id="linear-gradient-5" x1="23" y1="48.07" x2="41" y2="48.07" xlink:href="#linear-gradient"/></defs><g id="Layer_37" data-name="Layer 37"><path class="cls-1" d="M44.5,3h-25a5.07,5.07,0,0,0-5.07,5.07V55.93A5.07,5.07,0,0,0,19.5,61h25a5.07,5.07,0,0,0,5.07-5.07V8.07A5.07,5.07,0,0,0,44.5,3ZM16.43,9.07H47.57V51H16.43ZM19.5,5h25a3.07,3.07,0,0,1,2.89,2.07H16.61A3.07,3.07,0,0,1,19.5,5Zm25,54h-25a3.08,3.08,0,0,1-3.07-3.07V53H47.57v2.93A3.08,3.08,0,0,1,44.5,59Z"/><path class="cls-2" d="M35.7,54.86H28.3a1,1,0,1,0,0,2h7.4a1,1,0,0,0,0-2Z"/><path class="cls-3" d="M44.62,18.13l-12.12-7a1,1,0,0,0-1,0l-12.12,7a1,1,0,0,0-.5.87V33a1,1,0,0,0,.5.87l12.12,7a1,1,0,0,0,1,0l12.12-7a1,1,0,0,0,.5-.87V19A1,1,0,0,0,44.62,18.13ZM32,13.15,42.13,19l-4.57,2.63-9.4-6.26Zm0,11.69L21.87,19l4.36-2.51,9.4,6.26ZM20.88,20.73,31,26.57v11.7L20.88,32.42ZM33,38.27V26.57l3.52-2v3a1,1,0,0,0,2,0V23.39l4.6-2.66V32.42Z"/><path class="cls-4" d="M42.21,43.14H21.79a1,1,0,0,0,0,2H42.21a1,1,0,0,0,0-2Z"/><path class="cls-5" d="M40,47.07H24a1,1,0,1,0,0,2H40a1,1,0,0,0,0-2Z"/></g></svg>