<svg width="512" height="512" viewBox="0 0 512 512" fill="none" xmlns="http://www.w3.org/2000/svg">
<path d="M476 40H36C28.5765 40.0082 21.4593 42.9608 16.2101 48.2101C10.9608 53.4593 8.00821 60.5765 8 68V380C8.00821 387.424 10.9608 394.541 16.2101 399.79C21.4593 405.039 28.5765 407.992 36 408H184V432H152C149.878 432 147.843 432.843 146.343 434.343C144.843 435.843 144 437.878 144 440V456H96C93.8783 456 91.8434 456.843 90.3431 458.343C88.8429 459.843 88 461.878 88 464C88 466.122 88.8429 468.157 90.3431 469.657C91.8434 471.157 93.8783 472 96 472H416C418.122 472 420.157 471.157 421.657 469.657C423.157 468.157 424 466.122 424 464C424 461.878 423.157 459.843 421.657 458.343C420.157 456.843 418.122 456 416 456H368V440C368 437.878 367.157 435.843 365.657 434.343C364.157 432.843 362.122 432 360 432H328V408H476C483.424 407.992 490.541 405.039 495.79 399.79C501.039 394.541 503.992 387.424 504 380V68C503.992 60.5765 501.039 53.4593 495.79 48.2101C490.541 42.9608 483.424 40.0082 476 40ZM352 448V456H160V448H352ZM200 432V408H312V432H200ZM488 380C487.997 383.182 486.732 386.232 484.482 388.482C482.232 390.732 479.182 391.997 476 392H36C32.8182 391.997 29.7675 390.732 27.5176 388.482C25.2678 386.232 24.0026 383.182 24 380V368H488V380ZM488 352H24V68C24.0026 64.8182 25.2678 61.7675 27.5176 59.5176C29.7675 57.2678 32.8182 56.0026 36 56H476C479.182 56.0026 482.232 57.2678 484.482 59.5176C486.732 61.7675 487.997 64.8182 488 68V352Z" fill="url(#paint0_linear_1_1424)" id="id_101"></path>
<path d="M232 80H56C53.8783 80 51.8434 80.8429 50.3431 82.3431C48.8429 83.8434 48 85.8783 48 88V312C48 314.122 48.8429 316.157 50.3431 317.657C51.8434 319.157 53.8783 320 56 320H232C234.122 320 236.157 319.157 237.657 317.657C239.157 316.157 240 314.122 240 312V88C240 85.8783 239.157 83.8434 237.657 82.3431C236.157 80.8429 234.122 80 232 80ZM215.54 96L144 187.05L72.46 96H215.54ZM64 111.13L133.83 200L64 288.87V111.13ZM72.46 304L144 212.95L215.54 304H72.46ZM224 288.87L154.17 200L224 111.13V288.87Z" fill="url(#paint1_linear_1_1424)" id="id_102"></path>
<path d="M264 160H456C458.122 160 460.157 159.157 461.657 157.657C463.157 156.157 464 154.122 464 152V88C464 85.8783 463.157 83.8434 461.657 82.3431C460.157 80.8429 458.122 80 456 80H264C261.878 80 259.843 80.8429 258.343 82.3431C256.843 83.8434 256 85.8783 256 88V152C256 154.122 256.843 156.157 258.343 157.657C259.843 159.157 261.878 160 264 160ZM272 96H448V144H272V96Z" fill="url(#paint2_linear_1_1424)" id="id_103"></path>
<path d="M264 192H456C458.122 192 460.157 191.157 461.657 189.657C463.157 188.157 464 186.122 464 184C464 181.878 463.157 179.843 461.657 178.343C460.157 176.843 458.122 176 456 176H264C261.878 176 259.843 176.843 258.343 178.343C256.843 179.843 256 181.878 256 184C256 186.122 256.843 188.157 258.343 189.657C259.843 191.157 261.878 192 264 192Z" fill="url(#paint3_linear_1_1424)" id="id_104"></path>
<path d="M264 216H456C458.122 216 460.157 215.157 461.657 213.657C463.157 212.157 464 210.122 464 208C464 205.878 463.157 203.843 461.657 202.343C460.157 200.843 458.122 200 456 200H264C261.878 200 259.843 200.843 258.343 202.343C256.843 203.843 256 205.878 256 208C256 210.122 256.843 212.157 258.343 213.657C259.843 215.157 261.878 216 264 216Z" fill="url(#paint4_linear_1_1424)" id="id_105"></path>
<path d="M264 240H360C362.122 240 364.157 239.157 365.657 237.657C367.157 236.157 368 234.122 368 232C368 229.878 367.157 227.843 365.657 226.343C364.157 224.843 362.122 224 360 224H264C261.878 224 259.843 224.843 258.343 226.343C256.843 227.843 256 229.878 256 232C256 234.122 256.843 236.157 258.343 237.657C259.843 239.157 261.878 240 264 240Z" fill="url(#paint5_linear_1_1424)" id="id_106"></path>
<path d="M264 272H456C458.122 272 460.157 271.157 461.657 269.657C463.157 268.157 464 266.122 464 264C464 261.878 463.157 259.843 461.657 258.343C460.157 256.843 458.122 256 456 256H264C261.878 256 259.843 256.843 258.343 258.343C256.843 259.843 256 261.878 256 264C256 266.122 256.843 268.157 258.343 269.657C259.843 271.157 261.878 272 264 272Z" fill="url(#paint6_linear_1_1424)" id="id_107"></path>
<path d="M264 296H456C458.122 296 460.157 295.157 461.657 293.657C463.157 292.157 464 290.122 464 288C464 285.878 463.157 283.843 461.657 282.343C460.157 280.843 458.122 280 456 280H264C261.878 280 259.843 280.843 258.343 282.343C256.843 283.843 256 285.878 256 288C256 290.122 256.843 292.157 258.343 293.657C259.843 295.157 261.878 296 264 296Z" fill="url(#paint7_linear_1_1424)" id="id_108"></path>
<path d="M264 320H360C362.122 320 364.157 319.157 365.657 317.657C367.157 316.157 368 314.122 368 312C368 309.878 367.157 307.843 365.657 306.343C364.157 304.843 362.122 304 360 304H264C261.878 304 259.843 304.843 258.343 306.343C256.843 307.843 256 309.878 256 312C256 314.122 256.843 316.157 258.343 317.657C259.843 319.157 261.878 320 264 320Z" fill="url(#paint8_linear_1_1424)" id="id_109"></path>
<defs>
<linearGradient id="paint0_linear_1_1424" x1="-27.716" y1="507.716" x2="469.226" y2="10.774" gradientUnits="userSpaceOnUse">
<stop stop-color="#003F8A" id="id_110"></stop>
<stop offset="0.518" stop-color="#52e2ff" id="id_111"></stop>
<stop offset="1" stop-color="#006DF0" id="id_112"></stop>
</linearGradient>
<linearGradient id="paint1_linear_1_1424" x1="-18329.5" y1="105612" x2="98027.7" y2="12526.1" gradientUnits="userSpaceOnUse">
<stop stop-color="#003F8A" id="id_113"></stop>
<stop offset="0.518" stop-color="#52e2ff" id="id_114"></stop>
<stop offset="1" stop-color="#006DF0" id="id_115"></stop>
</linearGradient>
<linearGradient id="paint2_linear_1_1424" x1="-27.716" y1="507.716" x2="469.226" y2="10.774" gradientUnits="userSpaceOnUse">
<stop stop-color="#003F8A" id="id_116"></stop>
<stop offset="0.518" stop-color="#52e2ff" id="id_117"></stop>
<stop offset="1" stop-color="#006DF0" id="id_118"></stop>
</linearGradient>
<linearGradient id="paint3_linear_1_1424" x1="1147.07" y1="8811.46" x2="2363.12" y2="-6997.15" gradientUnits="userSpaceOnUse">
<stop stop-color="#003F8A" id="id_119"></stop>
<stop offset="0.518" stop-color="#52e2ff" id="id_120"></stop>
<stop offset="1" stop-color="#006DF0" id="id_121"></stop>
</linearGradient>
<linearGradient id="paint4_linear_1_1424" x1="3643.07" y1="9027.46" x2="4859.12" y2="-6781.15" gradientUnits="userSpaceOnUse">
<stop stop-color="#003F8A" id="id_122"></stop>
<stop offset="0.518" stop-color="#52e2ff" id="id_123"></stop>
<stop offset="1" stop-color="#006DF0" id="id_124"></stop>
</linearGradient>
<linearGradient id="paint5_linear_1_1424" x1="735.807" y1="8859.46" x2="2962.11" y2="-6724.64" gradientUnits="userSpaceOnUse">
<stop stop-color="#003F8A" id="id_125"></stop>
<stop offset="0.518" stop-color="#52e2ff" id="id_126"></stop>
<stop offset="1" stop-color="#006DF0" id="id_127"></stop>
</linearGradient>
<linearGradient id="paint6_linear_1_1424" x1="9467.07" y1="9531.46" x2="10683.1" y2="-6277.15" gradientUnits="userSpaceOnUse">
<stop stop-color="#003F8A" id="id_128"></stop>
<stop offset="0.518" stop-color="#52e2ff" id="id_129"></stop>
<stop offset="1" stop-color="#006DF0" id="id_130"></stop>
</linearGradient>
<linearGradient id="paint7_linear_1_1424" x1="11963.1" y1="9747.46" x2="13179.1" y2="-6061.15" gradientUnits="userSpaceOnUse">
<stop stop-color="#003F8A" id="id_131"></stop>
<stop offset="0.518" stop-color="#52e2ff" id="id_132"></stop>
<stop offset="1" stop-color="#006DF0" id="id_133"></stop>
</linearGradient>
<linearGradient id="paint8_linear_1_1424" x1="5215.81" y1="9579.46" x2="7442.11" y2="-6004.65" gradientUnits="userSpaceOnUse">
<stop stop-color="#003F8A" id="id_134"></stop>
<stop offset="0.518" stop-color="#57e3ff" id="id_135"></stop>
<stop offset="1" stop-color="#006DF0" id="id_136"></stop>
</linearGradient>
</defs>
</svg>